<?xml version="1.0" encoding="UTF-8" standalone="no"?>
<svg
   xmlns:dc="http://purl.org/dc/elements/1.1/"
   xmlns:cc="http://creativecommons.org/ns#"
   xmlns:rdf="http://www.w3.org/1999/02/22-rdf-syntax-ns#"
   xmlns:svg="http://www.w3.org/2000/svg"
   xmlns="http://www.w3.org/2000/svg"
   xmlns:sodipodi="http://sodipodi.sourceforge.net/DTD/sodipodi-0.dtd"
   xmlns:inkscape="http://www.inkscape.org/namespaces/inkscape"
   width="40"
   height="40"
   viewBox="0 0 40 40"
   version="1.1"
   id="svg3811"
   sodipodi:docname="logo1.svg"
   style="fill:none"
   inkscape:version="0.92.5 (2060ec1f9f, 2020-04-08)">
  <metadata
     id="metadata3815">
    <rdf:RDF>
      <cc:Work
         rdf:about="">
        <dc:format>image/svg+xml</dc:format>
        <dc:type
           rdf:resource="http://purl.org/dc/dcmitype/StillImage" />
      </cc:Work>
    </rdf:RDF>
  </metadata>
  <sodipodi:namedview
     pagecolor="#ffffff"
     bordercolor="#666666"
     borderopacity="1"
     objecttolerance="10"
     gridtolerance="10"
     guidetolerance="10"
     inkscape:pageopacity="0"
     inkscape:pageshadow="2"
     inkscape:window-width="1920"
     inkscape:window-height="1025"
     id="namedview3813"
     showgrid="false"
     inkscape:zoom="9.9768786"
     inkscape:cx="73.652701"
     inkscape:cy="20"
     inkscape:window-x="1920"
     inkscape:window-y="27"
     inkscape:window-maximized="1"
     inkscape:current-layer="svg3811" />
  <path
     d="M 34.1422,5.85781 C 30.3647,2.08031 25.3422,0 20,0 14.6578,0 9.63531,2.08031 5.85781,5.85781 2.08031,9.63531 0,14.6578 0,20 0,25.3422 2.08039,30.3646 5.85781,34.1422 9.63523,37.9198 14.6578,40 20,40 25.3422,40 30.3647,37.9197 34.1422,34.1422 37.9197,30.3647 40,25.3422 40,20 40,14.6578 37.9196,9.63539 34.1422,5.85781 Z"
     id="path3798"
     inkscape:connector-curvature="0"
     style="fill:#33cc95" />
  <g
     clip-path="url(#clip0)"
     id="g3804">
    <path
       d="M 20.5714,8 V 33.1429"
       id="path3800"
       inkscape:connector-curvature="0"
       style="stroke:#ffffff;stroke-width:2;stroke-linecap:round;stroke-linejoin:round" />
    <path
       d="m 26.2857,12.5714 h -8.5714 c -1.0609,0 -2.0783,0.4215 -2.8284,1.1716 -0.7502,0.7501 -1.1716,1.7676 -1.1716,2.8284 0,1.0609 0.4214,2.0783 1.1716,2.8285 0.7501,0.7501 1.7675,1.1715 2.8284,1.1715 h 5.7143 c 1.0608,0 2.0783,0.4215 2.8284,1.1716 0.7502,0.7502 1.1716,1.7676 1.1716,2.8284 0,1.0609 -0.4214,2.0783 -1.1716,2.8285 -0.7501,0.7501 -1.7676,1.1715 -2.8284,1.1715 h -9.7143"
       id="path3802"
       inkscape:connector-curvature="0"
       style="stroke:#ffffff;stroke-width:2;stroke-linecap:round;stroke-linejoin:round" />
  </g>
  <defs
     id="defs3809">
    <clipPath
       id="clip0">
      <rect
         width="27.4286"
         height="27.4286"
         transform="translate(6.85715,6.85714)"
         id="rect3806"
         x="0"
         y="0"
         style="fill:#ffffff" />
    </clipPath>
  </defs>
</svg>
